<svg width="250" height="125" viewBox="0 0 250 125" fill="none" xmlns="http://www.w3.org/2000/svg">
<path d="M64.6156 68.0156C64.6156 73.1406 63.9125 77.6562 62.5062 81.5625C61.1312 85.4688 58.9906 88.5156 56.0844 90.7031C53.1781 92.8594 49.4437 93.9375 44.8812 93.9375C42.225 93.9375 39.9125 93.4062 37.9437 92.3438C35.975 91.2812 34.2719 89.7969 32.8344 87.8906L32.1312 93H17.0375V21H33.9125V46.0312C35.2875 44.5625 36.8656 43.4219 38.6469 42.6094C40.4281 41.7656 42.475 41.3438 44.7875 41.3438C49.3812 41.3438 53.1312 42.4688 56.0375 44.7188C58.975 46.9688 61.1312 50.0312 62.5062 53.9062C63.9125 57.75 64.6156 62.125 64.6156 67.0312V68.0156ZM47.7406 67.0312C47.7406 64.8438 47.5687 62.8438 47.225 61.0312C46.8812 59.1875 46.1937 57.7188 45.1625 56.625C44.1625 55.5 42.6156 54.9375 40.5219 54.9375C37.3344 54.9375 35.1312 56 33.9125 58.125V77.25C35.1625 79.375 37.3969 80.4375 40.6156 80.4375C42.7719 80.4375 44.35 79.9375 45.35 78.9375C46.35 77.9062 46.9906 76.4531 47.2719 74.5781C47.5844 72.7031 47.7406 70.5156 47.7406 68.0156V67.0312ZM25.8969 67.2656V67.8281C25.8969 67.7344 25.9125 67.6406 25.9437 67.5469L25.8969 67.2656ZM84.05 93H67.1281V21H84.05V93ZM117.734 42.2812H134.656V93H118.859L118.391 87.6562C116.828 89.625 114.938 91.1719 112.719 92.2969C110.5 93.3906 107.984 93.9375 105.172 93.9375C100.141 93.9375 96.0469 92.4844 92.8906 89.5781C89.7656 86.6406 88.2031 81.8281 88.2031 75.1406V42.2812H105.078V75.2344C105.078 76.8281 105.547 78.0781 106.484 78.9844C107.453 79.8906 108.891 80.3438 110.797 80.3438C112.547 80.3438 113.969 80.0625 115.062 79.5C116.188 78.9375 117.078 78.1719 117.734 77.2031V42.2812ZM185.778 68.0156C185.778 73.1406 185.075 77.6562 183.669 81.5625C182.294 85.4688 180.153 88.5156 177.247 90.7031C174.341 92.8594 170.606 93.9375 166.044 93.9375C163.387 93.9375 161.075 93.4062 159.106 92.3438C157.137 91.2812 155.434 89.7969 153.997 87.8906L153.294 93H138.2V21H155.075V46.0312C156.45 44.5625 158.028 43.4219 159.809 42.6094C161.591 41.7656 163.637 41.3438 165.95 41.3438C170.544 41.3438 174.294 42.4688 177.2 44.7188C180.137 46.9688 182.294 50.0312 183.669 53.9062C185.075 57.75 185.778 62.125 185.778 67.0312V68.0156ZM168.903 67.0312C168.903 64.8438 168.731 62.8438 168.387 61.0312C168.044 59.1875 167.356 57.7188 166.325 56.625C165.325 55.5 163.778 54.9375 161.684 54.9375C158.497 54.9375 156.294 56 155.075 58.125V77.25C156.325 79.375 158.559 80.4375 161.778 80.4375C163.934 80.4375 165.512 79.9375 166.512 78.9375C167.512 77.9062 168.153 76.4531 168.434 74.5781C168.747 72.7031 168.903 70.5156 168.903 68.0156V67.0312ZM147.059 67.2656V67.8281C147.059 67.7344 147.075 67.6406 147.106 67.5469L147.059 67.2656ZM185.572 67.2188C185.572 62.25 186.509 57.8281 188.384 53.9531C190.259 50.0469 193.025 46.9688 196.681 44.7188C200.337 42.4688 204.837 41.3438 210.181 41.3438C215.587 41.3438 220.119 42.4688 223.775 44.7188C227.462 46.9688 230.228 50.0469 232.072 53.9531C233.947 57.8281 234.884 62.25 234.884 67.2188V68.1094C234.884 73.0469 233.947 77.4688 232.072 81.375C230.228 85.2812 227.478 88.3594 223.822 90.6094C220.166 92.8281 215.65 93.9375 210.275 93.9375C204.9 93.9375 200.369 92.8281 196.681 90.6094C193.025 88.3594 190.259 85.2812 188.384 81.375C186.509 77.4688 185.572 73.0469 185.572 68.1094V67.2188ZM202.494 68.1094C202.494 71.6094 202.994 74.5312 203.994 76.875C205.025 79.1875 207.119 80.3438 210.275 80.3438C213.369 80.3438 215.431 79.1875 216.462 76.875C217.494 74.5312 218.009 71.6094 218.009 68.1094V67.2188C218.009 64.9688 217.791 62.9219 217.353 61.0781C216.947 59.2031 216.181 57.7188 215.056 56.625C213.931 55.5 212.306 54.9375 210.181 54.9375C208.119 54.9375 206.525 55.5 205.4 56.625C204.306 57.7188 203.541 59.2031 203.103 61.0781C202.697 62.9219 202.494 64.9688 202.494 67.2188V68.1094Z" fill="white"/>
</svg>
